<svg id="Layer_1" data-name="Layer 1" xmlns="http://www.w3.org/2000/svg" viewBox="0 0 512 512"><defs><style>.cls-1{fill:#05aa5b;}.cls-2{fill:#f8c13f;}.cls-3{fill:#2377c2;}.cls-4{fill:#d51d3d;}</style></defs><path d="M250.94,70.8H399.09a99.7,99.7,0,0,1,51.49,13.93,103.63,103.63,0,0,1,37.3,37,95.43,95.43,0,0,1,13.66,49.38,91,91,0,0,1-13.92,49.12,82.69,82.69,0,0,1-38.09,32.84q28.89,10,45.18,33.89T511,341.37a94.18,94.18,0,0,1-13.66,49.13A104.26,104.26,0,0,1,460,427.27Q436.4,441.21,407.5,441.2H250.94Zm145,165.5q26.81,0,44.92-18.65T459,173.25q0-25.73-18.13-44.39t-44.92-18.65H292.44V236.3Zm8.93,166q26.81,0,45.19-18.39t18.39-44.66q0-27.84-18.39-46t-51.49-18.12H292.44V402.32Z"/><polygon class="cls-1" points="268 347.62 145 407.62 141 105.62 268 156.62 268 347.62"/><rect class="cls-2" x="35" y="102.62" width="87" height="305"/><path d="M.7,70.8H116.5q51,0,94,25a187.25,187.25,0,0,1,68.26,67.51q25.22,42.55,25.23,93T278.77,349a187.79,187.79,0,0,1-68.26,67.25q-43,25-94,25H.7ZM112.25,402.32V109.68H42.13V402.32Zm97.47-33.63A144.55,144.55,0,0,0,262,256.26a146.64,146.64,0,0,0-13.81-63,143.06,143.06,0,0,0-38.51-49.91,146.5,146.5,0,0,0-55.51-28.9V397.59A146.36,146.36,0,0,0,209.72,368.69Z"/><rect class="cls-3" x="286" y="269.62" width="186" height="141"/><rect class="cls-4" x="279" y="105.62" width="180" height="131"/><path d="M250.94,70.8H399.09a99.7,99.7,0,0,1,51.49,13.93,103.63,103.63,0,0,1,37.3,37,95.43,95.43,0,0,1,13.66,49.38,91,91,0,0,1-13.92,49.12,82.69,82.69,0,0,1-38.09,32.84q28.89,10,45.18,33.89T511,341.37a94.18,94.18,0,0,1-13.66,49.13A104.26,104.26,0,0,1,460,427.27Q436.4,441.21,407.5,441.2H250.94L272,259.62Zm145,165.5q26.81,0,44.92-18.65T459,173.25q0-25.73-18.13-44.39t-44.92-18.65H292.44V236.3Zm8.93,166q26.81,0,45.19-18.39t18.39-44.66q0-27.84-18.39-46t-51.49-18.12H292.44V402.32Z"/></svg>